<svg xmlns="http://www.w3.org/2000/svg" viewBox="0 0 1200 800" role="img" aria-label="Predictive Sales Modeling">
  <defs>
    <linearGradient id="bg" x1="0" y1="0" x2="1" y2="1">
      <stop offset="0%" stop-color="#f8fafc"/>
      <stop offset="100%" stop-color="#e2e8f0"/>
    </linearGradient>
    <linearGradient id="bar1" x1="0" y1="0" x2="0" y2="1">
      <stop offset="0%" stop-color="#38bdf8"/>
      <stop offset="100%" stop-color="#0284c7"/>
    </linearGradient>
    <linearGradient id="bar2" x1="0" y1="0" x2="0" y2="1">
      <stop offset="0%" stop-color="#22c55e"/>
      <stop offset="100%" stop-color="#15803d"/>
    </linearGradient>
    <linearGradient id="bar3" x1="0" y1="0" x2="0" y2="1">
      <stop offset="0%" stop-color="#a3e635"/>
      <stop offset="100%" stop-color="#65a30d"/>
    </linearGradient>
    <linearGradient id="bar4" x1="0" y1="0" x2="0" y2="1">
      <stop offset="0%" stop-color="#fde047"/>
      <stop offset="100%" stop-color="#ca8a04"/>
    </linearGradient>
    <linearGradient id="bar5" x1="0" y1="0" x2="0" y2="1">
      <stop offset="0%" stop-color="#f97316"/>
      <stop offset="100%" stop-color="#c2410c"/>
    </linearGradient>
    <linearGradient id="bar6" x1="0" y1="0" x2="0" y2="1">
      <stop offset="0%" stop-color="#ef4444"/>
      <stop offset="100%" stop-color="#b91c1c"/>
    </linearGradient>
  </defs>

  <rect width="1200" height="800" fill="url(#bg)"/>

  <text x="600" y="170" text-anchor="middle" font-size="88" font-family="Arial, Helvetica, sans-serif" font-weight="800" fill="#1e3a5f" letter-spacing="2">SALES</text>
  <text x="600" y="260" text-anchor="middle" font-size="88" font-family="Arial, Helvetica, sans-serif" font-weight="800" fill="#1e3a5f" letter-spacing="2">FORECAST</text>

  <g opacity="0.25" fill="none" stroke="#111827" stroke-width="6">
    <circle cx="85" cy="78" r="42"/>
    <circle cx="1115" cy="78" r="42"/>
    <path d="M170 75h90"/>
    <path d="M940 75h90"/>
    <path d="M85 670h1030"/>
  </g>

  <g>
    <rect x="180" y="560" width="120" height="160" rx="8" fill="url(#bar1)"/>
    <rect x="330" y="510" width="120" height="210" rx="8" fill="url(#bar2)"/>
    <rect x="480" y="460" width="120" height="260" rx="8" fill="url(#bar3)"/>
    <rect x="630" y="390" width="120" height="330" rx="8" fill="url(#bar4)"/>
    <rect x="780" y="310" width="120" height="410" rx="8" fill="url(#bar5)"/>
    <rect x="930" y="220" width="120" height="500" rx="8" fill="url(#bar6)"/>
  </g>

  <path d="M90 650 L175 560 L260 600 L355 500 L450 520 L545 430 L640 390"
        fill="none" stroke="#dc2626" stroke-width="22" stroke-linecap="round" stroke-linejoin="round"/>
  <path d="M640 390 L610 355 L700 365 Z" fill="#dc2626"/>

  <text x="600" y="760" text-anchor="middle" font-size="28" font-family="Arial, Helvetica, sans-serif" fill="#334155">Predictive Sales Modeling</text>
</svg>
